<svg xmlns="http://www.w3.org/2000/svg" viewBox="0 0 64 64" id="movie"><path d="M32 23c-1.7 0-3 1.3-3 3s1.3 3 3 3 3-1.3 3-3-1.3-3-3-3zm0 4c-.6 0-1-.4-1-1s.4-1 1-1 1 .4 1 1-.4 1-1 1zm-6 4c.6 0 1 .4 1 1s.4 1 1 1 1-.4 1-1c0-1.7-1.3-3-3-3s-3 1.3-3 3 1.3 3 3 3c.6 0 1-.4 1-1s-.4-1-1-1-1-.4-1-1 .4-1 1-1zm6 10c1.7 0 3-1.3 3-3s-1.3-3-3-3-3 1.3-3 3 1.3 3 3 3zm0-4c.6 0 1 .4 1 1s-.4 1-1 1-1-.4-1-1 .4-1 1-1zm6-4c-.6 0-1-.4-1-1s-.4-1-1-1-1 .4-1 1c0 1.7 1.3 3 3 3s3-1.3 3-3-1.3-3-3-3c-.6 0-1 .4-1 1s.4 1 1 1 1 .4 1 1-.4 1-1 1z"></path><path d="M39.2 45c2.1 0 4-.8 5.5-2.3 1.1-1.1 2.6-1.7 4.1-1.7H50c.6 0 1-.4 1-1s-.4-1-1-1h-1.2c-2.1 0-4 .8-5.5 2.3-1.1 1.1-2.6 1.7-4.1 1.7h-.3c3.7-2.3 6.1-6.4 6.1-11 0-7.2-5.8-13-13-13-.6 0-1 .4-1 1s.4 1 1 1c6.1 0 11 4.9 11 11s-4.9 11-11 11-11-4.9-11-11c0-4.5 2.8-8.6 7-10.3.5-.2.8-.8.6-1.3-.2-.5-.8-.8-1.3-.6-5 1.9-8.3 6.8-8.3 12.1 0 7.2 5.8 13 13 13h7.2zM19.6 61h-1.5c-.6 0-1 .4-1 1s.4 1 1 1h1.5c.6 0 1-.4 1-1s-.4-1-1-1z"></path><path d="M62 43c.6 0 1-.4 1-1V3.9C63 2.3 61.7 1 60.1 1H44c-.6 0-1 .4-1 1s.4 1 1 1h9v5c0 .6.4 1 1 1s1-.4 1-1V3h5.1c.4 0 .9.3.9.9V15h-6v-3.2c0-.6-.4-1-1-1s-1 .4-1 1V61H24.3c-.6 0-1 .4-1 1s.4 1 1 1h35.8c1.6 0 2.9-1.3 2.9-2.9V46c0-.6-.4-1-1-1s-1 .4-1 1v1h-6V33h6v9c0 .6.4 1 1 1zm-1 6v11.1c0 .4-.3.9-.9.9H55V49h6zm-6-18V17h6v14h-6zM14.1 61H11V3h29c.6 0 1-.4 1-1s-.4-1-1-1H3.9C2.2 1 1 2.2 1 3.9v18c0 .6.4 1 1 1s1-.4 1-1V17h6v14H3v-5c0-.6-.4-1-1-1s-1 .4-1 1v34.1C1 61.8 2.2 63 3.9 63h10.2c.6 0 1-.4 1-1s-.5-1-1-1zM9 61H3.9c-.5 0-.9-.4-.9-.9V49h6v12zm0-14H3V33h6v14zm0-32H3V3.9c0-.5.4-.9.9-.9H9v12z"></path><path d="M19 6c0-.6-.4-1-1-1h-2.9c-1.2 0-2.1.9-2.1 2.1V10c0 .6.4 1 1 1s1-.4 1-1V7.1l.1-.1H18c.6 0 1-.4 1-1zm31 49c-.6 0-1 .4-1 1v1h-5c-.6 0-1 .4-1 1s.4 1 1 1h5c1.1 0 2-.9 2-2v-1c0-.6-.4-1-1-1zm-12 2c-.6 0-1 .4-1 1s.4 1 1 1h2c.6 0 1-.4 1-1s-.4-1-1-1h-2z"></path></svg>