<svg xmlns="http://www.w3.org/2000/svg" data-name="Movie folder" viewBox="0 0 64 64" id="movie-folder"><rect width="2" height="2" x="38" y="55"></rect><path d="M59,56a1,1,0,0,0,1-1V14a1,1,0,0,0-1-1H4V55a1,1,0,0,0,1,1H20V51a1,1,0,0,1,1-1h1V30H21a1,1,0,0,1-1-1V19a1,1,0,0,1,1-1H57a1,1,0,0,1,1,1V29a1,1,0,0,1-1,1H56V50h1a1,1,0,0,1,1,1v5Z"></path><rect width="2" height="2" x="46" y="23"></rect><rect width="2" height="2" x="46" y="55"></rect><rect width="2" height="2" x="38" y="23"></rect><rect width="2" height="2" x="30" y="23"></rect><rect width="2" height="2" x="30" y="55"></rect><path d="M28,50H50V30H28ZM39.832,33.555l-6,9-1.664-1.11,6-9Zm-6.664-1.11,1.664,1.11-2,3-1.664-1.11Z"></path><rect width="2" height="2" x="22" y="55"></rect><path d="M4 11H23V5a1 1 0 0 0-1-1H5A1 1 0 0 0 4 5zM37.93 7H25v4H41.13L38.76 7.45A1 1 0 0 0 37.93 7z"></path><rect width="2" height="2" x="54" y="23"></rect><rect width="2" height="2" x="54" y="55"></rect><path d="M55,28h1V27H53a1,1,0,0,1-1-1V22a1,1,0,0,1,1-1h3V20H22v1h3a1,1,0,0,1,1,1v4a1,1,0,0,1-1,1H22v1h1a1,1,0,0,1,1,1V51a1,1,0,0,1-1,1H22v1h3a1,1,0,0,1,1,1v4a1,1,0,0,1-1,1H22v1H56V59H53a1,1,0,0,1-1-1V54a1,1,0,0,1,1-1h3V52H55a1,1,0,0,1-1-1V29A1,1,0,0,1,55,28ZM44,22a1,1,0,0,1,1-1h4a1,1,0,0,1,1,1v4a1,1,0,0,1-1,1H45a1,1,0,0,1-1-1Zm-8,0a1,1,0,0,1,1-1h4a1,1,0,0,1,1,1v4a1,1,0,0,1-1,1H37a1,1,0,0,1-1-1Zm-8,0a1,1,0,0,1,1-1h4a1,1,0,0,1,1,1v4a1,1,0,0,1-1,1H29a1,1,0,0,1-1-1Zm6,36a1,1,0,0,1-1,1H29a1,1,0,0,1-1-1V54a1,1,0,0,1,1-1h4a1,1,0,0,1,1,1Zm8,0a1,1,0,0,1-1,1H37a1,1,0,0,1-1-1V54a1,1,0,0,1,1-1h4a1,1,0,0,1,1,1Zm8,0a1,1,0,0,1-1,1H45a1,1,0,0,1-1-1V54a1,1,0,0,1,1-1h4a1,1,0,0,1,1,1Zm2-7a1,1,0,0,1-1,1H27a1,1,0,0,1-1-1V29a1,1,0,0,1,1-1H51a1,1,0,0,1,1,1Z"></path><rect width="2" height="2" x="22" y="23"></rect></svg>